<?xml version="1.0" encoding="utf-8"?>
<!-- Generator: Adobe Illustrator 21.0.2, SVG Export Plug-In . SVG Version: 6.00 Build 0)  -->
<svg version="1.1" id="Layer_1" xmlns="http://www.w3.org/2000/svg" xmlns:xlink="http://www.w3.org/1999/xlink" x="0px" y="0px"
	 viewBox="0 0 165 80" enable-background="new 0 0 165 80" xml:space="preserve">
<linearGradient id="SVGID_1_" gradientUnits="userSpaceOnUse" x1="7.4353" y1="40.2458" x2="157.4353" y2="40.2458" gradientTransform="matrix(0.8707 -0.4918 0.4918 0.8707 -9.0699 45.5026)">
	<stop  offset="0" style="stop-color:#FF512F"/>
	<stop  offset="0.5" style="stop-color:#DD2476"/>
	<stop  offset="1" style="stop-color:#6F71B4"/>
</linearGradient>
<path fill="url(#SVGID_1_)" d="M162.932,40.118c-0.031,21.346-17.423,38.686-38.768,38.655
	c-11.308-0.017-21.841-4.869-29.196-13.367l-0.01,0.009l-34.746-40.3l-0.018,0.014c-0.152-0.199-0.314-0.388-0.472-0.582
	l-0.958-1.112c-4.612-5.04-11.035-7.903-17.949-7.913c-13.464-0.02-24.434,10.918-24.454,24.382S27.28,64.337,40.744,64.357
	c6.763,0.01,13.027-2.684,17.62-7.477l1.578-1.821c0.162-0.206,0.329-0.407,0.486-0.619l0.031,0.023l2.019-2.33l-2.651-2.428
	l15.076-0.137l1.182,15.03l-3.063-2.806l-2.165,2.498c-7.33,9.034-18.463,14.377-30.134,14.36
	C19.377,78.619,2.037,61.228,2.068,39.882S19.49,1.197,40.836,1.228c11,0.016,21.214,4.585,28.527,12.623l0.007-0.006l0.222,0.258
	c0.327,0.366,0.648,0.737,0.963,1.117l11.927,13.834l0.009-0.011l9.433,10.941l-0.009,0.011l13.072,15.162l0.025-0.019
	c4.658,5.926,11.646,9.331,19.174,9.342c13.464,0.02,24.434-10.918,24.454-24.382c0.02-13.464-10.918-24.434-24.382-24.454
	c-7.314-0.011-14.187,3.219-18.859,8.862l-0.034-0.028l-8.71,10.049l-9.433-10.941l8.312-9.59l0.043,0.037
	c7.353-8.095,17.71-12.699,28.701-12.683C145.622,1.381,162.963,18.772,162.932,40.118z"/>
<g>
</g>
<g>
</g>
<g>
</g>
<g>
</g>
<g>
</g>
</svg>
