<?xml version="1.0" encoding="utf-8"?>
<!-- Generator: Adobe Illustrator 22.0.0, SVG Export Plug-In . SVG Version: 6.00 Build 0)  -->
<svg version="1.1" id="Layer_1" xmlns="http://www.w3.org/2000/svg" xmlns:xlink="http://www.w3.org/1999/xlink" x="0px" y="0px"
	 viewBox="0 0 1920 1080" style="enable-background:new 0 0 1920 1080;" xml:space="preserve">
<style type="text/css">
	.st0{stroke:#FFFFFF;stroke-width:5;stroke-miterlimit:10;}
	.st1{fill:url(#SVGID_1_);}
</style>
<g>
	<circle class="st0" cx="960" cy="540.6" r="495.6"/>
	<linearGradient id="SVGID_1_" gradientUnits="userSpaceOnUse" x1="625.129" y1="494.7144" x2="1294.9501" y2="494.7144">
		<stop  offset="0" style="stop-color:#FF512F"/>
		<stop  offset="0.5" style="stop-color:#DD2476"/>
		<stop  offset="1" style="stop-color:#6F71B4"/>
	</linearGradient>
	<path class="st1" d="M1294.9,529c-0.1,88.9-72.5,161.1-161.4,161c-47.1-0.1-90.9-20.3-121.6-55.7l0,0L867.2,466.5l-0.1,0.1
		c-0.6-0.8-1.3-1.6-2-2.4l-4-4.6c-19.2-21-46-32.9-74.7-32.9c-56.1-0.1-101.7,45.5-101.8,101.5c-0.1,56.1,45.5,101.7,101.5,101.8
		c28.2,0,54.2-11.2,73.4-31.1l6.6-7.6c0.7-0.9,1.4-1.7,2-2.6l0.1,0.1l8.4-9.7l-11-10.1l62.8-0.6l4.9,62.6l-12.7-11.7l-9,10.4
		c-30.5,37.6-76.9,59.9-125.5,59.8c-38.5-0.1-73.9-13.7-101.6-36.4v179h-59.3V528c0.1-88.9,72.5-161.1,161.4-160.9
		c45.8,0.1,88.3,19.1,118.8,52.6l0,0l0.9,1.1c1.4,1.5,2.7,3.1,4,4.7l49.7,57.6l0,0l39.3,45.6l0,0l54.4,63.1l0.1-0.1
		c19.4,24.7,48.5,38.9,79.8,38.9c56.1,0.1,101.7-45.5,101.8-101.5c0.1-56.1-45.5-101.7-101.5-101.8c-30.5,0-59.1,13.4-78.5,36.9
		l-0.1-0.1l-36.3,41.8l-38.8-44.9l-0.1-0.1V157.4h59.3V398c27.2-19.7,60.1-30.5,94.5-30.4C1222.9,367.7,1295.1,440.1,1294.9,529z"/>
</g>
</svg>
