<?xml version="1.0" encoding="utf-8"?>
<!-- Generator: Adobe Illustrator 22.0.0, SVG Export Plug-In . SVG Version: 6.00 Build 0)  -->
<svg version="1.1" id="Layer_1" xmlns="http://www.w3.org/2000/svg" xmlns:xlink="http://www.w3.org/1999/xlink" x="0px" y="0px"
	 viewBox="0 0 1920 1080" style="enable-background:new 0 0 1920 1080;" xml:space="preserve">
<style type="text/css">
	.st0{fill:#FFFFFF;}
	.st1{fill:#FF512F;}
	.st2{stroke:#FFFFFF;stroke-width:5;stroke-miterlimit:10;}
	.st3{fill:url(#SVGID_1_);}
</style>
<g>
	<rect x="2.5" y="419.8" width="1915" height="241"/>
	<g>
		<g>
			<path class="st0" d="M469.2,475c9.6,0,17.2,3,22.9,9.1c5.3,5.8,7.9,13.1,7.9,22.1v19c0,8.6-3,16-9,22.1c-6,6.1-13.3,9.2-21.8,9.2
				h-11.4v49.2h-19.7V475H469.2z M481,506.5c0-3.4-1-6.1-3.1-8.2c-2-2.1-4.8-3.1-8.2-3.1h-11.9v41.8h11.9c3.1,0,5.8-1.1,8-3.3
				c2.2-2.2,3.3-4.9,3.3-8V506.5z"/>
			<path class="st0" d="M546.8,475c11,0,19,3,24.2,9.1c4.5,5.3,6.8,12.6,6.8,22.1v19c0,9.2-3.5,17.1-10.5,23.4l14.6,57h-21.3
				l-11.9-49.2c-0.6,0-1.1,0-1.8,0h-11.4v49.2h-19.7V475H546.8z M558.6,506.5c0-7.6-3.8-11.4-11.3-11.4h-11.9v41.8h11.9
				c3.1,0,5.8-1.1,8-3.3c2.2-2.2,3.3-4.9,3.3-8V506.5z"/>
			<path class="st0" d="M626.5,473.4c8.7,0,16.1,3.1,22.1,9.2c6.1,6.1,9.1,13.5,9.1,22.1v71.3c0,8.7-3.1,16.1-9.2,22.1
				c-6.1,6.1-13.5,9.1-22.1,9.1c-8.7,0-16-3.1-22.1-9.2c-6-6.1-9.1-13.5-9.1-22.1v-71.3c0-8.7,3.1-16.1,9.2-22.1
				C610.7,476.4,618,473.4,626.5,473.4z M637.3,504.2c0-3.1-1.1-5.8-3.3-8c-2.2-2.2-4.8-3.3-8-3.3c-3.1,0-5.8,1.1-8,3.3
				c-2.2,2.2-3.3,4.8-3.3,8v71.5c0,3.1,1.1,5.8,3.3,8c2.2,2.2,4.9,3.3,8,3.3c3.1,0,5.8-1.1,8-3.3c2.2-2.2,3.3-4.8,3.3-8V504.2z"/>
			<path class="st0" d="M694.8,605.6h-19.7V474.9h56.1v19.8h-36.4v35.6h26.6v19.8h-26.6V605.6z"/>
			<path class="st0" d="M744.7,605.6V474.9h56.1v19.8h-36.4v35.6H791v19.8h-26.6v35.6h36.4v19.8H744.7z"/>
			<path class="st0" d="M879.4,573.1c0.1,9.1-2.2,16.9-7.1,23.3c-3.2,4.4-7.7,7.5-13.5,9.3c-3.1,1-6.8,1.5-10.9,1.5
				c-7.7,0-14.1-1.9-19.2-5.7c-4.2-3.1-7.6-7.4-10.1-12.8c-2.5-5.4-3.9-11.5-4.3-18.5l18.8-1.4c0.8,7.6,2.8,13.1,6,16.5
				c2.4,2.6,5.1,3.8,8.1,3.7c4.3-0.1,7.7-2.3,10.3-6.4c1.3-2,2-4.9,2-8.7c0-5.4-2.5-10.8-7.4-16.2c-3.9-3.7-9.7-9.2-17.5-16.6
				c-6.5-6.3-11.1-12-13.9-17c-2.9-5.6-4.4-11.8-4.4-18.4c0-11.9,4-20.9,12-27c4.9-3.7,11-5.5,18.3-5.5c7,0,13,1.6,18,4.7
				c3.9,2.4,7,5.8,9.4,10.2c2.4,4.4,3.8,9.4,4.3,15.1l-18.9,3.4c-0.6-5.3-2.1-9.5-4.6-12.5c-1.8-2.2-4.4-3.2-7.8-3.2
				c-3.6,0-6.4,1.6-8.2,4.8c-1.5,2.6-2.3,5.8-2.3,9.6c0,6,2.6,12.1,7.7,18.2c1.9,2.4,4.9,5.1,8.8,8.3c4.6,3.8,7.6,6.5,9.1,8
				c4.9,4.9,8.6,9.7,11.3,14.4c1.3,2.2,2.3,4.3,3,6.1C878.4,565.2,879.4,569.4,879.4,573.1z"/>
			<path class="st0" d="M958.1,573.1c0.1,9.1-2.2,16.9-7.1,23.3c-3.2,4.4-7.7,7.5-13.5,9.3c-3.1,1-6.8,1.5-10.9,1.5
				c-7.7,0-14.1-1.9-19.2-5.7c-4.2-3.1-7.6-7.4-10.1-12.8c-2.5-5.4-3.9-11.5-4.3-18.5l18.8-1.4c0.8,7.6,2.8,13.1,6,16.5
				c2.4,2.6,5.1,3.8,8.1,3.7c4.3-0.1,7.7-2.3,10.3-6.4c1.3-2,2-4.9,2-8.7c0-5.4-2.5-10.8-7.4-16.2c-3.9-3.7-9.7-9.2-17.5-16.6
				c-6.5-6.3-11.2-12-13.9-17c-2.9-5.6-4.4-11.8-4.4-18.4c0-11.9,4-20.9,12-27c4.9-3.7,11-5.5,18.3-5.5c7,0,13,1.6,18,4.7
				c3.9,2.4,7,5.8,9.4,10.2c2.4,4.4,3.8,9.4,4.3,15.1l-18.9,3.4c-0.6-5.3-2.1-9.5-4.6-12.5c-1.8-2.2-4.4-3.2-7.8-3.2
				c-3.6,0-6.4,1.6-8.2,4.8c-1.5,2.6-2.3,5.8-2.3,9.6c0,6,2.6,12.1,7.7,18.2c1.9,2.4,4.9,5.1,8.8,8.3c4.6,3.8,7.6,6.5,9.1,8
				c4.9,4.9,8.6,9.7,11.3,14.4c1.3,2.2,2.3,4.3,3,6.1C957.1,565.2,958,569.4,958.1,573.1z"/>
			<path class="st0" d="M994.2,605.6h-19.7V475h19.7V605.6z"/>
			<path class="st0" d="M1042.7,473.4c8.7,0,16.1,3.1,22.1,9.2c6.1,6.1,9.1,13.5,9.1,22.1v71.3c0,8.7-3.1,16.1-9.2,22.1
				c-6.1,6.1-13.5,9.1-22.1,9.1c-8.7,0-16-3.1-22.1-9.2c-6-6.1-9.1-13.5-9.1-22.1v-71.3c0-8.7,3.1-16.1,9.2-22.1
				C1026.8,476.4,1034.2,473.4,1042.7,473.4z M1053.4,504.2c0-3.1-1.1-5.8-3.3-8c-2.2-2.2-4.8-3.3-8-3.3c-3.1,0-5.8,1.1-8,3.3
				c-2.2,2.2-3.3,4.8-3.3,8v71.5c0,3.1,1.1,5.8,3.3,8c2.2,2.2,4.9,3.3,8,3.3c3.1,0,5.8-1.1,8-3.3c2.2-2.2,3.3-4.8,3.3-8V504.2z"/>
			<path class="st0" d="M1113.4,474.9l26.1,87.8v-87.8h19.7v130.7h-21.2l-27.1-83.7v83.7h-19.7V474.9H1113.4z"/>
			<path class="st0" d="M1201,575.6l-4.8,30h-20.5l22.2-130.6h27.1l21.9,130.6h-20.7l-4.6-30H1201z M1211.3,504.9l-7.3,51.5h14.6
				L1211.3,504.9z"/>
			<path class="st0" d="M1317.1,605.6h-53.7V475h19.7v111h34V605.6z"/>
			<path class="st0" d="M1393.2,573.1c0.1,9.1-2.2,16.9-7.1,23.3c-3.2,4.4-7.7,7.5-13.5,9.3c-3.1,1-6.8,1.5-10.9,1.5
				c-7.7,0-14.1-1.9-19.2-5.7c-4.2-3.1-7.6-7.4-10.1-12.8c-2.5-5.4-3.9-11.5-4.3-18.5l18.8-1.4c0.8,7.6,2.8,13.1,6,16.5
				c2.4,2.6,5.1,3.8,8.1,3.7c4.3-0.1,7.7-2.3,10.3-6.4c1.3-2,2-4.9,2-8.7c0-5.4-2.5-10.8-7.4-16.2c-3.9-3.7-9.7-9.2-17.5-16.6
				c-6.5-6.3-11.2-12-13.9-17c-2.9-5.6-4.4-11.8-4.4-18.4c0-11.9,4-20.9,12-27c4.9-3.7,11-5.5,18.3-5.5c7,0,13,1.6,18,4.7
				c3.9,2.4,7,5.8,9.4,10.2c2.4,4.4,3.8,9.4,4.3,15.1l-18.9,3.4c-0.6-5.3-2.1-9.5-4.6-12.5c-1.8-2.2-4.4-3.2-7.8-3.2
				c-3.6,0-6.4,1.6-8.2,4.8c-1.5,2.6-2.3,5.8-2.3,9.6c0,6,2.6,12.1,7.7,18.2c1.9,2.4,4.9,5.1,8.8,8.3c4.6,3.8,7.6,6.5,9.1,8
				c4.9,4.9,8.6,9.7,11.3,14.4c1.3,2.2,2.3,4.3,3,6.1C1392.2,565.2,1393.2,569.4,1393.2,573.1z"/>
			<path class="st1" d="M1409.6,605.6V474.9h29.5c7.8,0,14.8,2.1,21,6.1c5.3,3.5,9.2,8.9,11.5,16.2c1.3,3.9,1.9,8.5,1.9,13.9
				c0,8.8-2.3,15.8-7,21c-1.9,2.2-4.2,3.9-6.9,5.1c4.4,1.7,8.1,5,11.2,9.9c2,3.3,3.5,7.6,4.5,12.9c0.5,2.7,0.7,5.7,0.7,9.1
				c0,8.3-1.6,15.3-4.7,21c-2.4,4.5-5.9,8.1-10.3,10.8c-5,3.1-10,4.6-14.9,4.6H1409.6z M1430.9,528.3h8.2c6.1,0,10.2-3,12.3-9
				c0.8-2.2,1.1-5,1.1-8.2c0-5.4-1.3-9.5-4-12.3c-2.4-2.6-5.6-3.9-9.5-3.9h-8.2V528.3z M1430.9,586.1h8.2c6.7,0,11.3-3.4,13.9-10.3
				c0.9-2.4,1.4-5.1,1.4-8.1c0-7.3-1.4-12.6-4.2-15.9c-2.5-3.1-6.2-4.6-11-4.6h-8.2V586.1z"/>
			<path class="st1" d="M1523.9,473.4c8.7,0,16.1,3.1,22.1,9.2c6.1,6.1,9.1,13.5,9.1,22.1v71.3c0,8.7-3.1,16.1-9.2,22.1
				c-6.1,6.1-13.5,9.1-22.1,9.1c-8.7,0-16-3.1-22.1-9.2c-6-6.1-9.1-13.5-9.1-22.1v-71.3c0-8.7,3.1-16.1,9.2-22.1
				C1508,476.4,1515.4,473.4,1523.9,473.4z M1534.6,504.2c0-3.1-1.1-5.8-3.3-8c-2.2-2.2-4.8-3.3-8-3.3c-3.1,0-5.8,1.1-8,3.3
				c-2.2,2.2-3.3,4.8-3.3,8v71.5c0,3.1,1.1,5.8,3.3,8c2.2,2.2,4.9,3.3,8,3.3c3.1,0,5.8-1.1,8-3.3c2.2-2.2,3.3-4.8,3.3-8V504.2z"/>
			<path class="st1" d="M1603.3,473.4c8.7,0,16.1,3.1,22.1,9.2c6.1,6.1,9.1,13.5,9.1,22.1v71.3c0,8.7-3.1,16.1-9.2,22.1
				c-6.1,6.1-13.5,9.1-22.1,9.1c-8.7,0-16-3.1-22.1-9.2c-6-6.1-9.1-13.5-9.1-22.1v-71.3c0-8.7,3.1-16.1,9.2-22.1
				C1587.4,476.4,1594.8,473.4,1603.3,473.4z M1614.1,504.2c0-3.1-1.1-5.8-3.3-8c-2.2-2.2-4.8-3.3-8-3.3c-3.1,0-5.8,1.1-8,3.3
				c-2.2,2.2-3.3,4.8-3.3,8v71.5c0,3.1,1.1,5.8,3.3,8c2.2,2.2,4.9,3.3,8,3.3c3.1,0,5.8-1.1,8-3.3c2.2-2.2,3.3-4.8,3.3-8V504.2z"/>
			<path class="st1" d="M1671.6,564.2v41.4h-19.7V474.9h19.7v46.6l24.1-46.6h21l-27,53.3l31.6,77.4h-23.2l-20.7-53.1L1671.6,564.2z"
				/>
		</g>
		<g>
			<circle class="st2" cx="298.7" cy="540.3" r="100"/>
			<linearGradient id="SVGID_1_" gradientUnits="userSpaceOnUse" x1="231.1035" y1="531.0067" x2="366.2473" y2="531.0067">
				<stop  offset="0" style="stop-color:#FF512F"/>
				<stop  offset="0.5" style="stop-color:#DD2476"/>
				<stop  offset="1" style="stop-color:#6F71B4"/>
			</linearGradient>
			<path class="st3" d="M366.2,537.9c0,17.9-14.6,32.5-32.6,32.5c-9.5,0-18.3-4.1-24.5-11.2l0,0L280,525.3l0,0
				c-0.1-0.2-0.3-0.3-0.4-0.5l-0.8-0.9c-3.9-4.2-9.3-6.6-15.1-6.6c-11.3,0-20.5,9.2-20.5,20.5c0,11.3,9.2,20.5,20.5,20.5
				c5.7,0,10.9-2.3,14.8-6.3l1.3-1.5c0.1-0.2,0.3-0.3,0.4-0.5l0,0l1.7-2l-2.2-2l12.7-0.1l1,12.6l-2.6-2.4l-1.8,2.1
				c-6.2,7.6-15.5,12.1-25.3,12.1c-7.8,0-14.9-2.8-20.5-7.3v36.1h-12v-61.3c0-17.9,14.6-32.5,32.6-32.5c9.2,0,17.8,3.9,24,10.6l0,0
				l0.2,0.2c0.3,0.3,0.5,0.6,0.8,0.9l10,11.6l0,0l7.9,9.2l0,0l11,12.7l0,0c3.9,5,9.8,7.8,16.1,7.8c11.3,0,20.5-9.2,20.5-20.5
				c0-11.3-9.2-20.5-20.5-20.5c-6.1,0-11.9,2.7-15.8,7.4l0,0l-7.3,8.4l-7.8-9.1l0,0v-61.2h12v48.5c5.5-4,12.1-6.1,19.1-6.1
				C351.7,505.4,366.3,520,366.2,537.9z"/>
		</g>
	</g>
</g>
</svg>
